# xmcd
#
# Track frame offsets:
#	150
#	14524
#	26028
#	38814
#	48549
#	59029
#	71390
#	80714
#	93702
#	102629
#	114133
#	123923
#	135559
#	148101
#	160664
#	170036
#	181582
#	191916
#	202215
#	214868
#	230357
#	242028
#
# Disc length: 3426 seconds
#
# Revision: 1
# Processed by: cddbd v1.5.2PL0 Copyright (c) Steve Scherf et al.
# Submitted via: EZCDAudioConverter 2.4.0.1
#
DISCID=480d6016
DTITLE=Red Simpson - I'm A Truck+Truck Drivin' Man
DYEAR=1900
DGENRE=TruckCountry
TTITLE0=I'm A Truck
TTITLE1=Nitro Express
TTITLE2=Old Sam
TTITLE3=Runaway Truck
TTITLE4=Black Smoke A Blowin' Over 18 Wheels (That's Home Sweet Home)
TTITLE5=Roll  Truck  Roll
TTITLE6=Big Mack
TTITLE7=Where Love Used To Be
TTITLE8=Motivatin' Man
TTITLE9=Take Me Home
TTITLE10=The Ballad Of Billie Jones
TTITLE11=Diesel Smoke Dangerous Curves
TTITLE12=Roll  Truck  Roll
TTITLE13=Ole Ben
TTITLE14=Big Mack
TTITLE15=Take Me Home
TTITLE16=Truck Drivin' Man
TTITLE17=The Highway Patrol
TTITLE18=Old Sam
TTITLE19=Sleeper Five By Two
TTITLE20=Certainly
TTITLE21=Born To Be A Trucker
EXTD=
EXTT0=
EXTT1=
EXTT2=
EXTT3=
EXTT4=
EXTT5=
EXTT6=
EXTT7=
EXTT8=
EXTT9=
EXTT10=
EXTT11=
EXTT12=
EXTT13=
EXTT14=
EXTT15=
EXTT16=
EXTT17=
EXTT18=
EXTT19=
EXTT20=
EXTT21=
PLAYORDER=
